<?xml version="1.0" encoding="UTF-8"?><svg id="Layer_1" xmlns="http://www.w3.org/2000/svg" viewBox="0 0 82.97 92.63"><defs><style>.cls-1{fill:none;stroke:#bb8b50;stroke-miterlimit:10;stroke-width:2px;}</style></defs><path id="Icon_awesome-moon" class="cls-1" d="M46.28,91.63c13.67,.02,26.61-6.15,35.21-16.78,.74-.91,.6-2.25-.31-2.99-.49-.39-1.12-.55-1.74-.44-19.25,3.69-37.85-8.92-41.54-28.17-2.87-14.94,4.11-30.04,17.34-37.55,1.02-.58,1.37-1.88,.79-2.9-.31-.55-.85-.93-1.47-1.04C29.95-2.79,6.31,13.47,1.76,38.08c-4.55,24.61,11.71,48.24,36.32,52.79,2.71,.5,5.45,.75,8.2,.76Z"/></svg>