<?xml version="1.0" encoding="UTF-8"?><svg id="Layer_1" xmlns="http://www.w3.org/2000/svg" viewBox="0 0 82.12 91.93"><defs><style>.cls-1{fill:#bb8b50;}</style></defs><path id="Icon_awesome-moon" class="cls-1" d="M45.93,91.93c13.86,.02,26.99-6.24,35.71-17.02,.75-.92,.61-2.28-.32-3.03-.49-.4-1.14-.56-1.76-.44-19.53,3.75-38.39-9.05-42.14-28.58-2.91-15.15,4.17-30.47,17.59-38.09,1.03-.59,1.39-1.91,.8-2.94-.32-.56-.87-.94-1.5-1.05C29.36-3.84,5.39,12.65,.77,37.61c-4.61,24.96,11.88,48.93,36.84,53.55,2.74,.51,5.53,.76,8.32,.77Z"/></svg>