<?xml version="1.0" encoding="UTF-8"?><svg id="Layer_1" xmlns="http://www.w3.org/2000/svg" viewBox="0 0 471.72 318.43"><defs><style>.cls-1{fill:#262626;}</style></defs><path id="Icon_zocial-email" class="cls-1" d="M0,290.23V28.21c0-.3,.45-3.18,1.36-8.64L155.57,151.48,1.82,299.32c-1.21-4.25-1.82-7.28-1.82-9.1ZM20.47,1.37C22.93,.4,25.56-.06,28.2,0H443.51c2.79,0,5.55,.47,8.19,1.36l-154.66,132.37-20.47,16.38-40.49,33.21-40.49-33.21-20.47-16.38L20.47,1.37Zm.46,315.69L176.04,168.32l60.04,48.68,60.04-48.68,155.12,148.75c-2.47,.92-5.09,1.38-7.73,1.36H28.2c-2.49-.01-4.95-.47-7.28-1.36ZM316.6,151.48L470.35,19.57c.92,2.79,1.38,5.71,1.36,8.64V290.22c-.05,3.08-.51,6.14-1.36,9.1l-153.75-147.84Z"/></svg>