<svg id="Layer_1" data-name="Layer 1" xmlns="http://www.w3.org/2000/svg" viewBox="0 0 47.86 46.66"><defs><style>.cls-1{fill:#31525a;}</style></defs><path id="Icon_awesome-github" data-name="Icon awesome-github" class="cls-1" d="M16,37.57c0,.2-.22.35-.5.35s-.54-.13-.54-.35.22-.34.5-.34S16,37.35,16,37.57Zm-3-.43c-.07.19.12.41.41.47a.46.46,0,0,0,.6-.19c.06-.19-.13-.41-.41-.5A.5.5,0,0,0,13,37.14ZM17.27,37c-.27.07-.47.26-.44.48s.27.32.57.25.47-.25.44-.44S17.55,37,17.27,37ZM23.62,0A23.12,23.12,0,0,0,0,22.65c0,.3,0,.6,0,.9A24.19,24.19,0,0,0,16.36,46.62c1.23.22,1.67-.54,1.67-1.17s0-3.89,0-5.92c0,0-6.76,1.45-8.17-2.88,0,0-1.1-2.81-2.69-3.53,0,0-2.21-1.51.16-1.49A5.1,5.1,0,0,1,11,34.13a5.11,5.11,0,0,0,6.91,2.09l.13-.07a5.39,5.39,0,0,1,1.54-3.26C14.21,32.3,8.76,31.51,8.76,22.23A7.29,7.29,0,0,1,11,16.55,9,9,0,0,1,11.29,10c2-.63,6.65,2.61,6.65,2.61a22.67,22.67,0,0,1,12.12,0S34.7,9.36,36.72,10A9.14,9.14,0,0,1,37,16.55a7.51,7.51,0,0,1,2.49,5.68c0,9.31-5.68,10.06-11.08,10.66A5.71,5.71,0,0,1,30,37.37c0,3.25,0,7.27,0,8.07,0,.62.44,1.39,1.67,1.16a24,24,0,0,0,16.19-23C47.86,10.16,37,0,23.62,0ZM9.38,33.28c-.12.1-.1.32.07.5a.37.37,0,0,0,.5.1c.13-.1.1-.32-.07-.5S9.51,33.15,9.38,33.28Zm-1-.78c-.07.12,0,.27.22.37a.28.28,0,0,0,.4,0H9c.07-.13,0-.28-.22-.38s-.34,0-.41.07Zm3.13,3.43c-.16.12-.1.41.12.6s.5.25.63.09.06-.41-.13-.6-.5-.24-.62-.09Zm-1.1-1.42c-.16.09-.16.35,0,.57s.41.32.54.22a.46.46,0,0,0,0-.6c-.14-.21-.39-.31-.54-.19Z"/></svg>