<?xml version="1.0" encoding="utf-8"?>
<!-- Generator: Adobe Illustrator 26.3.1, SVG Export Plug-In . SVG Version: 6.00 Build 0)  -->
<svg version="1.1" id="Layer_2_00000065792069778618527620000008099931749983767462_"
	 xmlns="http://www.w3.org/2000/svg" xmlns:xlink="http://www.w3.org/1999/xlink" x="0px" y="0px" viewBox="0 0 612.3 612.3"
	 style="enable-background:new 0 0 612.3 612.3;" xml:space="preserve">
<style type="text/css">
	.st0{fill:#F3F3F3;}
	.st1{fill:#4A5B73;}
</style>
<g>
	<circle class="st0" cx="306.1" cy="306.1" r="306.1"/>
	<g id="Layer_1-2">
		<path id="Icon_metro-github" class="st1" d="M306.3,410.7c-7.4-0.5-14.2-4.1-19.1-9.6c-2.5-2.5-2.5-6.7,0-9.2
			c2.5-2.5,6.7-2.5,9.2,0c2.4,3.1,5.9,5.3,9.7,5.9c3.9-0.7,7.3-2.8,9.7-6c2.5-2.5,6.8-2.4,9.2,0.1s2.4,6.6,0,9.1
			C320.5,406.6,313.7,410.2,306.3,410.7L306.3,410.7z M138.2,310.7c-0.1,14.9,1.3,29.8,4.3,44.6c2.3,12,6.4,23.6,11.8,34.6
			c4.9,9.5,11.5,18.3,19.3,25.7c7.6,7.2,16,13.3,25.3,18.2c9.9,5,20.4,8.9,31.3,11.5c11.8,2.8,23.8,5,35.7,6.1
			c12.2,1.1,25.5,1.8,40.1,1.6c14.6-0.1,27.9-0.7,40.2-1.8c12.2-1.2,24.1-3.2,35.8-6.2c10.8-2.6,21.4-6.6,31.3-11.6
			c9.2-4.9,17.9-11.1,25.4-18.3c7.8-7.4,14.3-16.1,19.3-25.7c5.5-11,9.4-22.6,11.8-34.6c3-14.7,4.4-29.6,4.3-44.6
			c0.5-27.7-9.2-54.7-27.4-75.7c1.1-3.1,2-6.5,2.6-9.6c0.8-3.7,1.4-8.8,2.1-15.4c0.7-7.7,0.3-15.4-0.8-23
			c-1.3-9.1-3.7-18.1-6.9-26.6l-2.6-0.5c-2.8-0.3-5.8-0.2-8.5,0.3c-4.7,0.8-9.3,1.8-13.9,3.2c-7.1,2.3-14,5.4-20.5,9.1
			c-9.2,5.1-18.2,11-26.6,17.3c-42.8-13.1-88.6-13-131.3,0.2c-8.2-6.5-17.2-12.2-26.5-17.2c-6.8-3.6-13.6-6.7-20.6-9.2
			c-4.6-1.5-9.3-2.5-14.1-3.2c-2.7-0.4-5.6-0.5-8.3-0.4c-0.9,0.1-1.8,0.3-2.6,0.5c-3.2,8.7-5.6,17.6-6.9,26.7
			c-1.2,7.6-1.5,15.2-0.8,22.9c0.4,5.3,1.2,10.4,2.3,15.6c0.7,3.3,1.6,6.6,2.7,9.6C147.4,255.9,137.6,283,138.2,310.7z M183.1,348.1
			c0.1-19.3,7.6-37.9,20.9-51.8c4.1-4.6,9-8.2,14.6-10.8c6-2.5,12.4-3.9,18.8-4.2c6.7-0.3,13.5-0.3,20.3,0.1
			c6.5,0.4,14.3,1.1,23.9,1.8c9.4,0.8,17.6,1.1,24.5,1.1c6.9,0,15-0.4,24.5-1.2c9.4-0.8,17.4-1.4,23.9-1.9
			c6.7-0.4,13.5-0.5,20.2-0.2c6.6,0.2,12.9,1.5,19.1,4.2c5.7,2.4,10.7,6.1,14.7,10.7c13.4,13.9,20.9,32.4,21,51.8
			c0.1,10-1,20-3.5,29.8c-1.9,7.7-4.9,15-8.8,21.9c-3.8,6.1-8.8,11.3-14.9,15c-5.9,3.8-12.2,7-18.6,9.4c-7.6,2.5-15.3,4.4-23.2,5.3
			c-9.4,1.2-18.1,2-25.5,2.3c-7.6,0.3-17.1,0.4-28.4,0.4c-11.5,0-20.8-0.1-28.3-0.3c-7.4-0.2-15.9-1-25.5-2.2
			c-7.9-0.9-15.7-2.5-23.2-5.1c-6.6-2.4-12.8-5.7-18.6-9.4c-6.1-3.8-11.3-8.9-15-14.9c-4.1-6.9-6.9-14.2-8.9-21.9
			C184.2,368.2,183,358.1,183.1,348.1L183.1,348.1z M222.3,337.7c0-17.4,9.3-31.5,20.9-31.5c11.6,0,21,14,21,31.5
			c0,17.4-9.3,31.5-20.9,31.5C231.7,369.2,222.3,355.2,222.3,337.7z M348.1,337.4c0-17.4,9.3-31.5,20.9-31.5s21,14,21,31.5
			s-9.3,31.5-20.9,31.5S348.1,355,348.1,337.4z"/>
	</g>
</g>
</svg>
