<?xml version="1.0" encoding="UTF-8"?><svg id="Layer_2" xmlns="http://www.w3.org/2000/svg" viewBox="0 0 301.7 263.94"><defs><style>.cls-1{fill:#4a5b73;}</style></defs><g id="Layer_1-2"><path id="Icon_metro-github" class="cls-1" d="M150.85,226.2c-6.65-.5-12.82-3.66-17.12-8.76-2.3-2.3-2.3-6.03,0-8.33s6.03-2.3,8.33,0c2.18,2.8,5.31,4.7,8.8,5.35,3.49-.64,6.62-2.55,8.8-5.35,2.33-2.27,6.06-2.23,8.33,.1,2.24,2.29,2.23,5.95,0,8.23-4.3,5.1-10.47,8.26-17.13,8.76ZM.02,135.93c-.12,13.42,1.14,26.81,3.77,39.97,2.11,10.79,5.68,21.25,10.6,31.09,4.43,8.61,10.27,16.41,17.28,23.08,6.77,6.47,14.41,11.97,22.7,16.34,8.91,4.56,18.32,8.05,28.04,10.39,10.56,2.65,21.3,4.5,32.13,5.55,10.89,1.06,22.89,1.59,35.98,1.59s25.11-.53,36.06-1.59c10.86-1.04,21.63-2.9,32.21-5.55,9.75-2.35,19.19-5.84,28.12-10.39,8.34-4.37,16.03-9.86,22.86-16.34,7.05-6.65,12.92-14.46,17.36-23.08,4.93-9.84,8.52-20.3,10.69-31.09,2.69-13.15,3.98-26.55,3.85-39.97,.51-24.93-8.22-49.16-24.51-68.04,1.03-2.84,1.84-5.76,2.44-8.73,.68-3.28,1.33-7.9,1.97-13.88,.6-6.9,.37-13.85-.7-20.69-1.19-8.18-3.28-16.21-6.21-23.95l-2.36-.48c-2.57-.29-5.16-.18-7.7,.32-4.22,.68-8.39,1.63-12.49,2.86-6.41,2.09-12.6,4.82-18.46,8.16-8.32,4.57-16.3,9.74-23.88,15.47-38.44-11.83-79.55-11.83-118,0-7.58-5.72-15.59-10.86-23.96-15.36-5.84-3.24-11.94-6-18.23-8.25-4.11-1.39-8.34-2.35-12.65-2.87C34.48,.11,31.98-.02,29.48,.08c-.83,.09-1.65,.26-2.44,.53-2.93,7.75-5.04,15.78-6.28,23.97-1.12,6.81-1.38,13.74-.78,20.62,.44,4.69,1.13,9.34,2.05,13.96,.62,2.97,1.46,5.88,2.53,8.72C8.23,86.75-.51,110.99,.02,135.93Zm40.22,33.56c.1-17.34,6.85-33.99,18.86-46.5,3.62-4.13,8.1-7.42,13.13-9.64,5.38-2.27,11.12-3.52,16.95-3.71,6.05-.3,12.11-.24,18.15,.17,5.76,.41,12.88,.97,21.37,1.68s15.82,1.06,22,1.06c6.18,0,13.51-.35,22-1.06s15.61-1.27,21.37-1.68c6.04-.41,12.1-.47,18.15-.17,5.86,.19,11.64,1.44,17.05,3.71,5.06,2.2,9.56,5.49,13.2,9.64,12.01,12.51,18.76,29.16,18.86,46.5,.12,9.03-.94,18.03-3.14,26.79-1.72,6.91-4.39,13.54-7.95,19.71-3.36,5.47-7.96,10.08-13.43,13.44-5.27,3.4-10.87,6.24-16.73,8.48-6.77,2.32-13.78,3.89-20.9,4.68-8.54,1.12-16.18,1.8-22.94,2.03-6.76,.24-15.27,.36-25.53,.36-10.26,0-18.74-.12-25.43-.35-6.69-.24-14.31-.91-22.86-2.03-7.12-.79-14.12-2.36-20.9-4.68-5.86-2.23-11.47-5.08-16.73-8.48-5.47-3.36-10.07-7.97-13.43-13.44-3.55-6.17-6.23-12.81-7.95-19.71-2.21-8.76-3.27-17.76-3.15-26.79Zm35.19-9.27c0-15.62,8.44-28.28,18.86-28.28s18.86,12.66,18.86,28.28-8.44,28.28-18.86,28.28-18.86-12.64-18.86-28.28Zm113.13,0c0-15.62,8.44-28.28,18.86-28.28s18.86,12.66,18.86,28.28-8.44,28.28-18.86,28.28-18.86-12.64-18.86-28.28Z"/></g></svg>