<?xml version="1.0" encoding="UTF-8"?><svg id="Layer_1" xmlns="http://www.w3.org/2000/svg" viewBox="0 0 301.54 264.08"><defs><style>.cls-1{fill:#272626;}</style></defs><g id="Layer_1-2"><path id="Icon_metro-github" class="cls-1" d="M151.02,226.07c-6.7-.5-12.8-3.6-17.1-8.7-2.3-2.3-2.3-6,0-8.3s6-2.3,8.3,0c2.2,2.8,5.3,4.7,8.8,5.3,3.5-.6,6.6-2.6,8.8-5.4,2.3-2.3,6.1-2.2,8.3,.1s2.2,5.9,0,8.2c-4.3,5.1-10.4,8.3-17.1,8.8h0ZM.02,136.27c-.1,13.4,1.2,26.8,3.8,40,2.1,10.8,5.7,21.2,10.6,31.1,4.4,8.6,10.3,16.4,17.3,23.1,6.8,6.5,14.4,11.9,22.7,16.3,8.9,4.5,18.3,8,28.1,10.3,10.6,2.6,21.3,4.5,32.1,5.5,10.9,1,22.9,1.6,36,1.5s25.1-.6,36.1-1.6c10.9-1.1,21.6-2.9,32.2-5.6,9.7-2.4,19.2-5.9,28.1-10.4,8.3-4.4,16-9.9,22.8-16.4,7-6.7,12.9-14.5,17.3-23.1,4.9-9.8,8.5-20.3,10.6-31.1,2.7-13.2,3.9-26.6,3.8-40,.5-24.9-8.3-49.1-24.6-68,1-2.8,1.8-5.8,2.4-8.7,.7-3.3,1.3-7.9,1.9-13.9,.6-6.9,.3-13.9-.7-20.7-1.2-8.2-3.3-16.2-6.2-23.9l-2.4-.5c-2.6-.3-5.2-.2-7.7,.3-4.2,.7-8.4,1.6-12.5,2.9-6.4,2.1-12.6,4.8-18.4,8.2-8.3,4.6-16.3,9.8-23.9,15.5-38.5-11.8-79.6-11.7-118,.2-7.4-5.8-15.4-10.9-23.8-15.4-5.8-3.2-11.9-6-18.2-8.2-4.1-1.4-8.4-2.3-12.7-2.9-2.5-.4-5-.5-7.5-.4-.8,.1-1.6,.3-2.4,.5-2.9,7.8-5,15.8-6.2,24-1.1,6.8-1.4,13.7-.7,20.6,.4,4.7,1.1,9.3,2.1,14,.6,3,1.5,5.9,2.5,8.7C8.22,87.07-.48,111.37,.02,136.27Zm40.3,33.5c.1-17.3,6.8-34,18.8-46.5,3.6-4.1,8.1-7.4,13.1-9.7,5.4-2.3,11.1-3.5,16.9-3.7,6-.3,12.1-.3,18.2,.1,5.8,.4,12.9,1,21.4,1.6,8.5,.7,15.8,1,22,1s13.5-.4,22-1.1,15.6-1.3,21.4-1.7c6-.4,12.1-.5,18.1-.2,5.9,.2,11.6,1.4,17.1,3.7,5.1,2.2,9.6,5.5,13.2,9.6,12,12.5,18.8,29.1,18.9,46.5,.1,9-.9,18-3.1,26.8-1.7,6.9-4.4,13.5-7.9,19.7-3.4,5.5-7.9,10.1-13.4,13.5-5.3,3.4-10.9,6.3-16.7,8.5-6.8,2.3-13.8,3.9-20.9,4.7-8.5,1.1-16.2,1.8-22.9,2.1-6.8,.3-15.3,.4-25.5,.4s-18.7-.1-25.4-.3c-6.7-.2-14.3-.9-22.9-2-7.1-.8-14.1-2.3-20.9-4.6-5.9-2.2-11.5-5.1-16.7-8.5-5.5-3.4-10.1-8-13.5-13.4-3.6-6.2-6.2-12.8-8-19.7-2.3-8.7-3.4-17.7-3.3-26.8h0Zm35.2-9.3c0-15.6,8.4-28.3,18.8-28.3s18.9,12.6,18.9,28.3-8.4,28.3-18.8,28.3-18.9-12.6-18.9-28.3Zm113.1-.2c0-15.6,8.4-28.3,18.8-28.3s18.9,12.6,18.9,28.3-8.4,28.3-18.8,28.3-18.9-12.6-18.9-28.3Z"/></g></svg>