<?xml version="1.0" encoding="utf-8"?>
<!-- Generator: Adobe Illustrator 26.3.1, SVG Export Plug-In . SVG Version: 6.00 Build 0)  -->
<svg version="1.1" id="Layer_2_00000065792069778618527620000008099931749983767462_"
	 xmlns="http://www.w3.org/2000/svg" xmlns:xlink="http://www.w3.org/1999/xlink" x="0px" y="0px" viewBox="0 0 301.7 264.1"
	 style="enable-background:new 0 0 301.7 264.1;" xml:space="preserve">
<style type="text/css">
	.st0{fill:#4A5B73;}
</style>
<g id="Layer_1-2">
	<path id="Icon_metro-github" class="st0" d="M151,226.1c-6.7-0.5-12.8-3.6-17.1-8.7c-2.3-2.3-2.3-6,0-8.3c2.3-2.3,6-2.3,8.3,0
		c2.2,2.8,5.3,4.7,8.8,5.3c3.5-0.6,6.6-2.6,8.8-5.4c2.3-2.3,6.1-2.2,8.3,0.1c2.2,2.3,2.2,5.9,0,8.2
		C163.8,222.4,157.7,225.6,151,226.1L151,226.1z M0,136.3c-0.1,13.4,1.2,26.8,3.8,40c2.1,10.8,5.7,21.2,10.6,31.1
		c4.4,8.6,10.3,16.4,17.3,23.1c6.8,6.5,14.4,11.9,22.7,16.3c8.9,4.5,18.3,8,28.1,10.3c10.6,2.6,21.3,4.5,32.1,5.5
		c10.9,1,22.9,1.6,36,1.5s25.1-0.6,36.1-1.6c10.9-1.1,21.6-2.9,32.2-5.6c9.7-2.4,19.2-5.9,28.1-10.4c8.3-4.4,16-9.9,22.8-16.4
		c7-6.7,12.9-14.5,17.3-23.1c4.9-9.8,8.5-20.3,10.6-31.1c2.7-13.2,3.9-26.6,3.8-40c0.5-24.9-8.3-49.1-24.6-68c1-2.8,1.8-5.8,2.4-8.7
		c0.7-3.3,1.3-7.9,1.9-13.9c0.6-6.9,0.3-13.9-0.7-20.7c-1.2-8.2-3.3-16.2-6.2-23.9l-2.4-0.5c-2.6-0.3-5.2-0.2-7.7,0.3
		c-4.2,0.7-8.4,1.6-12.5,2.9c-6.4,2.1-12.6,4.8-18.4,8.2c-8.3,4.6-16.3,9.8-23.9,15.5c-38.5-11.8-79.6-11.7-118,0.2
		C84,21.5,76,16.4,67.6,11.9c-5.8-3.2-11.9-6-18.2-8.2C45.3,2.3,41,1.4,36.7,0.8c-2.5-0.4-5-0.5-7.5-0.4c-0.8,0.1-1.6,0.3-2.4,0.5
		c-2.9,7.8-5,15.8-6.2,24c-1.1,6.8-1.4,13.7-0.7,20.6c0.4,4.7,1.1,9.3,2.1,14c0.6,3,1.5,5.9,2.5,8.7C8.2,87.1-0.5,111.4,0,136.3z
		 M40.3,169.8c0.1-17.3,6.8-34,18.8-46.5c3.6-4.1,8.1-7.4,13.1-9.7c5.4-2.3,11.1-3.5,16.9-3.7c6-0.3,12.1-0.3,18.2,0.1
		c5.8,0.4,12.9,1,21.4,1.6c8.5,0.7,15.8,1,22,1c6.2,0,13.5-0.4,22-1.1c8.5-0.7,15.6-1.3,21.4-1.7c6-0.4,12.1-0.5,18.1-0.2
		c5.9,0.2,11.6,1.4,17.1,3.7c5.1,2.2,9.6,5.5,13.2,9.6c12,12.5,18.8,29.1,18.9,46.5c0.1,9-0.9,18-3.1,26.8
		c-1.7,6.9-4.4,13.5-7.9,19.7c-3.4,5.5-7.9,10.1-13.4,13.5c-5.3,3.4-10.9,6.3-16.7,8.5c-6.8,2.3-13.8,3.9-20.9,4.7
		c-8.5,1.1-16.2,1.8-22.9,2.1c-6.8,0.3-15.3,0.4-25.5,0.4c-10.3,0-18.7-0.1-25.4-0.3c-6.7-0.2-14.3-0.9-22.9-2
		c-7.1-0.8-14.1-2.3-20.9-4.6c-5.9-2.2-11.5-5.1-16.7-8.5c-5.5-3.4-10.1-8-13.5-13.4c-3.6-6.2-6.2-12.8-8-19.7
		C41.3,187.9,40.2,178.9,40.3,169.8L40.3,169.8z M75.5,160.5c0-15.6,8.4-28.3,18.8-28.3s18.9,12.6,18.9,28.3
		c0,15.6-8.4,28.3-18.8,28.3S75.5,176.2,75.5,160.5z M188.6,160.3c0-15.6,8.4-28.3,18.8-28.3s18.9,12.6,18.9,28.3
		s-8.4,28.3-18.8,28.3S188.6,176,188.6,160.3z"/>
</g>
</svg>
