<?xml version="1.0" encoding="UTF-8"?><svg id="Layer_1" xmlns="http://www.w3.org/2000/svg" viewBox="0 0 264 264"><defs><style>.cls-1{fill:#272626;}</style></defs><path id="Icon_awesome-linkedin" class="cls-1" d="M245.45,0H18.84C8.38,.08-.04,8.6,0,19.05V245.23c.08,10.36,8.48,18.73,18.84,18.77H245.45c10.23-.23,18.44-8.53,18.55-18.77V19.05c.04-10.34-8.21-18.82-18.55-19.05ZM78.93,226H40V100h39v126h-.07ZM60.3,83c-13.06,.04-23.58-10.91-22.8-24.15,.67-11.34,9.87-20.6,21.2-21.34,13.23-.86,24.25,9.59,24.29,22.65v.07h0c.04,12.53-10.09,22.73-22.63,22.77h-.07ZM226.93,226h-39.93v-61.38c0-14.27,0-33.47-20.39-33.47s-23.61,15.99-23.61,32.4v62.45h-39V100h38v17h.64c7.73-13.12,22.04-20.96,37.28-20.43,39.71,0,47.08,26.21,47.08,60.21l-.07,69.21Z"/></svg>