<svg id="Layer_1" data-name="Layer 1" xmlns="http://www.w3.org/2000/svg" viewBox="0 0 37.04 37.04"><defs><style>.cls-1{fill:#31525a;}</style></defs><path id="Icon_awesome-linkedin" data-name="Icon awesome-linkedin" class="cls-1" d="M34.4,0H2.64A2.66,2.66,0,0,0,0,2.67v31.7A2.65,2.65,0,0,0,2.64,37H34.4A2.66,2.66,0,0,0,37,34.37V2.67A2.66,2.66,0,0,0,34.4,0ZM11.19,31.75H5.71V14.07H11.2V31.75ZM8.45,11.66a3.19,3.19,0,1,1,3.18-3.19h0A3.18,3.18,0,0,1,8.45,11.66ZM31.78,31.75h-5.5v-8.6c0-2,0-4.69-2.85-4.69s-3.3,2.24-3.3,4.54v8.75H14.64V14.07h5.27v2.42H20a5.81,5.81,0,0,1,5.21-2.86c5.55,0,6.58,3.67,6.58,8.43Z"/></svg>