<svg id="Layer_1" data-name="Layer 1" xmlns="http://www.w3.org/2000/svg" viewBox="0 0 27 27"><defs><style>.cls-1{fill:#31535b;}</style></defs><path id="Icon_awesome-envelope-open-text" data-name="Icon awesome-envelope-open-text" class="cls-1" d="M9.28,11.39h8.44a.84.84,0,0,0,.84-.84V9.7a.83.83,0,0,0-.84-.84H9.28a.83.83,0,0,0-.84.84v.84a.84.84,0,0,0,.84.85Zm-.84,4.22a.83.83,0,0,0,.84.84h8.44a.83.83,0,0,0,.84-.84v-.84a.84.84,0,0,0-.84-.85H9.28a.84.84,0,0,0-.84.85ZM13.5,22A4.21,4.21,0,0,1,11,21.2l-11-8V24.47A2.53,2.53,0,0,0,2.53,27H24.47A2.53,2.53,0,0,0,27,24.47h0V13.23l-11,8A4.21,4.21,0,0,1,13.5,22ZM26,8.6c-.47-.37-.91-.71-1.56-1.2V5.06a2.53,2.53,0,0,0-2.53-2.53H17.85l-.48-.34C16.49,1.54,14.72,0,13.5,0s-3,1.54-3.87,2.19l-.48.34H5.06A2.53,2.53,0,0,0,2.53,5.06h0V7.39L1,8.59a2.55,2.55,0,0,0-1,2v.56L5.06,14.8V5.06H21.94V14.8L27,11.15v-.57a2.55,2.55,0,0,0-1-2Z"/></svg>