<svg id="Layer_1" data-name="Layer 1" xmlns="http://www.w3.org/2000/svg" viewBox="0 0 130.15 150.28"><defs><style>.cls-1{fill:#31525a;}.cls-2,.cls-3{fill:#fff;}.cls-3{stroke:#fff;stroke-miterlimit:10;}</style></defs><polygon class="cls-1" points="130.15 112.71 130.15 37.57 65.08 0 0 37.57 0 112.71 65.08 150.28 130.15 112.71"/><path class="cls-2" d="M35.83,59.73l-4.32,3.48V70.9a1.46,1.46,0,0,0,.3,1,2.06,2.06,0,0,0,1,.54v.67H23.91v-.67A2.14,2.14,0,0,0,25,71.88a1.47,1.47,0,0,0,.29-1V46.63a1.46,1.46,0,0,0-.29-1,2.22,2.22,0,0,0-1.05-.55v-.67h8.94v.67a2.06,2.06,0,0,0-1.05.54,1.42,1.42,0,0,0-.29,1v10L43.31,47c.54-.44.82-.8.82-1.07s-.41-.68-1.22-.84v-.67H54.62v.67a3.45,3.45,0,0,0-1,.34,22.45,22.45,0,0,0-1.82,1.43l-1.62,1.34-9.75,7.83,11,13.29a18.48,18.48,0,0,0,2.22,2.39,3.68,3.68,0,0,0,1.71.7v.67H44.16v-.67c.74-.15,1.11-.42,1.11-.8a4.63,4.63,0,0,0-1-1.55Z"/><path class="cls-2" d="M98.64,91.76H82.12v10.33a1.47,1.47,0,0,0,.3,1,2.11,2.11,0,0,0,1,.53v.67H74.52v-.67a2.14,2.14,0,0,0,1-.55,1.43,1.43,0,0,0,.29-1V77.8a1.46,1.46,0,0,0-.29-1,2.22,2.22,0,0,0-1-.54v-.68h8.94v.68a2,2,0,0,0-1,.53,1.51,1.51,0,0,0-.29,1V87H98.64V77.8a1.51,1.51,0,0,0-.29-1,2,2,0,0,0-1-.53v-.68h8.94v.68a2.22,2.22,0,0,0-1,.54,1.46,1.46,0,0,0-.29,1v24.29a1.43,1.43,0,0,0,.29,1,2.14,2.14,0,0,0,1,.55v.67H97.3v-.67a2.11,2.11,0,0,0,1-.53,1.47,1.47,0,0,0,.3-1Z"/><line class="cls-3" x1="73.06" y1="55.79" x2="55.85" y2="95.16"/></svg>