<svg id="Layer_1" data-name="Layer 1" xmlns="http://www.w3.org/2000/svg" viewBox="0 0 27 27"><defs><style>.cls-1{fill:#31535b;}</style></defs><path id="Icon_ionic-ios-person" data-name="Icon ionic-ios-person" class="cls-1" d="M27,26.32c-.51-2.24-3.4-3.33-4.4-3.68a34.74,34.74,0,0,0-3.66-.7,3.69,3.69,0,0,1-1.69-.78c-.28-.34-.12-3.46-.12-3.46a10.13,10.13,0,0,0,.8-1.53,20.21,20.21,0,0,0,.6-2.67s.57,0,.78-1a10.47,10.47,0,0,0,.52-2.36c-.05-.81-.49-.78-.49-.78a12.28,12.28,0,0,0,.48-3.61C19.87,2.85,17.61,0,13.51,0S7.14,2.85,7.2,5.74a13.35,13.35,0,0,0,.47,3.61s-.44,0-.48.78a10,10,0,0,0,.52,2.36c.2,1,.78,1,.78,1a19,19,0,0,0,.59,2.67,9.57,9.57,0,0,0,.8,1.52s.17,3.13-.11,3.47a3.73,3.73,0,0,1-1.7.78,32.36,32.36,0,0,0-3.66.7C3.41,23,.52,24.08,0,26.32A.56.56,0,0,0,.44,27l.13,0H26.44a.56.56,0,0,0,.56-.56A.49.49,0,0,0,27,26.32Z" transform="translate(0)"/></svg>