<svg id="Layer_1" data-name="Layer 1" xmlns="http://www.w3.org/2000/svg" viewBox="0 0 27 27"><defs><style>.cls-1{fill:#31535b;}</style></defs><path id="Icon_awesome-phone" data-name="Icon awesome-phone" class="cls-1" d="M26,1.3,20.53,0a1.29,1.29,0,0,0-1.45.73L16.55,6.67a1.27,1.27,0,0,0,.37,1.48l3.2,2.61a19.57,19.57,0,0,1-9.35,9.35l-2.61-3.2a1.27,1.27,0,0,0-1.48-.37L.77,19.08A1.29,1.29,0,0,0,0,20.53L1.3,26a1.26,1.26,0,0,0,1.23,1A24.47,24.47,0,0,0,27,2.54h0A1.26,1.26,0,0,0,26,1.3Z" transform="translate(0 0)"/></svg>