<?xml version="1.0" encoding="UTF-8"?><svg id="Layer_2" xmlns="http://www.w3.org/2000/svg" viewBox="0 0 618 413"><defs><style>.cls-1{fill:#4a5b73;}</style></defs><g id="Layer_1-2"><path id="Icon_material-computer" class="cls-1" d="M515.71,361c28.38-.09,51.34-23.16,51.29-51.57l.21-257.85c-.08-28.44-23.09-51.48-51.5-51.57H103.53c-28.42,.08-51.44,23.12-51.53,51.57V309.43c.08,28.45,23.1,51.49,51.53,51.57H0v52H618v-52h-102.29ZM103,52h412V310H103V52Z"/><path id="Icon_material-lightbulb-outline" class="cls-1" d="M285,259.53c.03,5.21,4.17,9.44,9.29,9.47h37.34c5.15,0,9.34-4.23,9.37-9.47v-9.53h-56v9.53Zm28-176.94c-35.75-.01-64.74,29.03-64.75,64.88,0,21.25,10.36,41.16,27.75,53.3v20.96c.01,5.12,4.15,9.26,9.25,9.28h55.5c5.1-.01,9.24-4.16,9.25-9.28v-20.96c29.34-20.48,36.57-60.93,16.14-90.35-12.1-17.44-31.95-27.83-53.14-27.82Zm26.85,103.51l-7.86,5.57v21.33h-37v-21.34l-7.86-5.57c-21.45-14.95-26.37-44.88-10.5-66.01,14.39-19.15,41.52-24.06,61.67-11.12,22.19,14.25,27.97,43.99,13.08,65.5-3.14,4.54-7.06,8.48-11.58,11.63h.04Z"/></g></svg>