<?xml version="1.0" encoding="utf-8"?>
<!-- Generator: Adobe Illustrator 26.3.1, SVG Export Plug-In . SVG Version: 6.00 Build 0)  -->
<svg version="1.1" id="Layer_2_00000122702710618111362260000005500129119158195105_"
	 xmlns="http://www.w3.org/2000/svg" xmlns:xlink="http://www.w3.org/1999/xlink" x="0px" y="0px" viewBox="0 0 612.3 612.3"
	 style="enable-background:new 0 0 612.3 612.3;" xml:space="preserve">
<style type="text/css">
	.st0{fill:#F3F3F3;}
	.st1{fill:#4A5B73;}
</style>
<g>
	<circle class="st0" cx="306.1" cy="306.1" r="306.1"/>
	<path id="Icon_material-computer" class="st1" d="M447.3,432.4c19.4-0.1,35.2-18.9,35.2-42.1l0.1-210.5
		c-0.1-23.2-15.9-42-35.3-42.1H165.1c-19.4,0.1-35.3,18.9-35.3,42.1v210.5c0.1,23.2,15.9,42,35.3,42.1H95v42.1h422.3v-42.1H447.3z
		 M166.1,179.8h281.5v210.5H166.1V179.8z"/>
	<path id="Icon_material-lightbulb-outline" class="st1" d="M290.8,360h30.6c4.2,0,7.7-3.4,7.7-7.7v-7.7h-45.9v7.7
		C283.2,356.5,286.6,360,290.8,360z M306.1,208.3c-29.6,0-53.6,23.7-53.6,52.9c0,17.4,8.5,33.6,23,43.5v17.1c0,4.2,3.4,7.5,7.5,7.5
		h46.1c4.2,0,7.7-3.4,7.7-7.5v-17.1c24.2-16.7,30.2-49.6,13.4-73.6C340.1,216.7,323.6,208.3,306.1,208.3L306.1,208.3z M328,292.4
		l-6.5,4.5v17.2h-30.6v-17.2l-6.5-4.5c-17.7-12-21.8-36.2-8.7-53.2c11.9-15.4,34.3-19.4,51-8.9c18.4,11.5,23.1,35.5,10.8,52.8
		C334.8,286.6,331.7,289.8,328,292.4L328,292.4L328,292.4z"/>
</g>
</svg>
