<?xml version="1.0" encoding="utf-8"?>
<!-- Generator: Adobe Illustrator 26.3.1, SVG Export Plug-In . SVG Version: 6.00 Build 0)  -->
<svg version="1.1" id="Layer_1" xmlns="http://www.w3.org/2000/svg" xmlns:xlink="http://www.w3.org/1999/xlink" x="0px" y="0px"
	 viewBox="0 0 612.3 612.3" style="enable-background:new 0 0 612.3 612.3;" xml:space="preserve">
<style type="text/css">
	.st0{fill:#F3F3F3;}
	.st1{fill:#495B73;}
</style>
<g>
	<circle class="st0" cx="306.1" cy="306.1" r="306.1"/>
	<path id="Icon_awesome-globe" class="st1" d="M366,241.1c-9.9-60.3-32.9-102.5-60-102.5c-27.1,0-50.3,42.4-59.6,102.8L366,241.1z
		 M241.6,306.4c0,14.4,0.8,28.8,2.3,43.1l124.9-0.3c1.4-14.4,2.1-28.8,2.1-43.1c0-14.4-0.8-28.9-2.3-43.1l-124.9,0.3
		C242.3,277.5,241.6,291.9,241.6,306.4z M460.6,241.2c-19.6-46.1-58.9-81.3-106.9-95.4c16.5,22.9,28,57.1,33.9,95.5L460.6,241.2z
		 M258.2,145.6c-48,14.4-87.3,49.5-106.7,95.8l73-0.1C230.4,202.7,241.8,168.3,258.2,145.6z M467.9,263l-77.4,0.1
		c1.5,14.4,2.3,28.8,2.3,43.3s-0.8,28.8-2.1,43.1l77.3-0.1c3.8-14.1,5.8-28.6,5.8-43.1C473.6,291.6,471.6,277.1,467.9,263z
		 M219.7,306.3c0-14.5,0.8-29,2.1-43.3l-77.4,0.1c-7.8,28.4-7.6,58.1,0.1,86.3l77.3-0.1C220.5,335,219.7,320.8,219.7,306.3z
		 M246.6,371.2c9.9,60.3,33,102.7,60,102.5c26.9,0,50.3-42.4,59.6-102.8L246.6,371.2z M354.2,466.9c48-14.5,87.2-49.5,106.7-95.8
		l-72.9,0.1C382.1,409.5,370.7,444.1,354.2,466.9z M151.8,371.2c19.6,46.1,58.9,81.3,106.9,95.4c-16.5-22.8-28-57-33.9-95.5
		L151.8,371.2z"/>
</g>
</svg>
