<?xml version="1.0" encoding="UTF-8"?><svg id="Layer_1" xmlns="http://www.w3.org/2000/svg" viewBox="0 0 53.35 53.35"><defs><style>.cls-1{fill:#495b73;}</style></defs><path id="Icon_awesome-globe" class="cls-1" d="M36.21,16.35C34.65,6.74,31,0,26.69,0s-8,6.75-9.52,16.35h19.04Zm-19.85,10.33c0,2.3,.12,4.59,.35,6.88h19.94c.23-2.29,.35-4.58,.35-6.88,0-2.3-.12-4.6-.35-6.89H16.71c-.23,2.29-.35,4.59-.35,6.89Zm34.93-10.33c-3.11-7.36-9.34-12.95-17-15.23,2.63,3.64,4.44,9.11,5.38,15.23h11.62ZM19.07,1.12C11.41,3.4,5.17,8.99,2.07,16.35H13.7c.94-6.12,2.75-11.6,5.37-15.23ZM52.44,19.79h-12.34c.23,2.29,.35,4.59,.35,6.89,0,2.3-.12,4.59-.35,6.88h12.33c.61-2.24,.91-4.56,.92-6.88,0-2.33-.31-4.64-.91-6.89ZM12.92,26.68c0-2.32,.13-4.63,.35-6.89H.93c-1.24,4.51-1.24,9.26,0,13.77H13.26c-.21-2.26-.34-4.56-.34-6.88Zm4.25,10.32c1.56,9.6,5.23,16.35,9.52,16.35s8-6.75,9.52-16.35H17.17Zm17.13,15.24c7.66-2.29,13.89-7.88,17-15.24h-11.62c-.95,6.12-2.75,11.6-5.38,15.24ZM2.08,37c3.11,7.36,9.34,12.94,17,15.23-2.63-3.63-4.44-9.1-5.38-15.23H2.08Z"/></svg>