<?xml version="1.0" encoding="utf-8"?>
<!-- Generator: Adobe Illustrator 26.3.1, SVG Export Plug-In . SVG Version: 6.00 Build 0)  -->
<svg version="1.1" id="Layer_1" xmlns="http://www.w3.org/2000/svg" xmlns:xlink="http://www.w3.org/1999/xlink" x="0px" y="0px"
	 viewBox="0 0 263.5 263.7" style="enable-background:new 0 0 263.5 263.7;" xml:space="preserve">
<style type="text/css">
	.st0{fill:#495B73;}
</style>
<path id="Icon_awesome-globe" class="st0" d="M178.8,81.1C171,33.7,152.9,0.4,131.6,0.4S92.1,33.8,84.7,81.3L178.8,81.1z
	 M80.9,132.4c0,11.3,0.6,22.6,1.8,33.9l98.3-0.2c1.1-11.3,1.7-22.6,1.7-33.9c0-11.3-0.6-22.7-1.8-33.9l-98.3,0.2
	C81.5,109.7,80.9,121,80.9,132.4z M253.3,81.2c-15.4-36.3-46.3-63.9-84.1-75.1c13,18,22,45,26.7,75.2L253.3,81.2z M94,5.9
	c-37.8,11.3-68.6,39-83.9,75.4l57.5-0.1C72.2,50.9,81.1,23.8,94,5.9z M259,98.3l-60.9,0.1c1.2,11.3,1.8,22.6,1.8,34
	s-0.6,22.6-1.7,33.9l60.8-0.1c3-11.1,4.5-22.5,4.5-33.9C263.5,120.8,262,109.4,259,98.3z M63.7,132.3c0-11.4,0.6-22.8,1.7-34
	L4.5,98.4c-6.1,22.3-6,45.7,0.1,67.9l60.8-0.1C64.4,155,63.7,143.7,63.7,132.3z M84.9,183.4c7.8,47.4,26,80.8,47.2,80.7
	c21.2,0,39.5-33.4,46.9-80.9L84.9,183.4z M169.6,258.7c37.8-11.4,68.6-39,83.9-75.4l-57.4,0.1C191.5,213.6,182.6,240.7,169.6,258.7z
	 M10.3,183.4c15.4,36.3,46.3,63.9,84.1,75.1c-13-17.9-22-44.9-26.7-75.2L10.3,183.4z"/>
</svg>
