<svg id="Layer_1" data-name="Layer 1" xmlns="http://www.w3.org/2000/svg" viewBox="0 0 53.35 53.36"><defs><style>.cls-1{fill:#31525a;}</style></defs><path id="Icon_awesome-globe" data-name="Icon awesome-globe" class="cls-1" d="M36.21,16.35C34.65,6.74,31,0,26.69,0s-8,6.75-9.52,16.35ZM16.36,26.68a68.61,68.61,0,0,0,.35,6.88H36.65A68.61,68.61,0,0,0,37,26.68a69,69,0,0,0-.35-6.89H16.71A69,69,0,0,0,16.36,26.68ZM51.29,16.35a26.74,26.74,0,0,0-17-15.23c2.63,3.64,4.44,9.11,5.38,15.23ZM19.07,1.12a26.71,26.71,0,0,0-17,15.23H13.7c.94-6.12,2.75-11.6,5.37-15.23ZM52.44,19.79H40.1a68.21,68.21,0,0,1,.35,6.89,68.16,68.16,0,0,1-.35,6.88H52.43a26.65,26.65,0,0,0,.92-6.88A27.15,27.15,0,0,0,52.44,19.79ZM12.92,26.68c0-2.32.13-4.63.35-6.89H.93a26,26,0,0,0,0,13.77H13.26C13.05,31.3,12.92,29,12.92,26.68ZM17.17,37c1.56,9.6,5.23,16.35,9.52,16.35s8-6.75,9.52-16.35ZM34.3,52.24A26.77,26.77,0,0,0,51.3,37H39.68C38.73,43.12,36.93,48.6,34.3,52.24ZM2.08,37a26.77,26.77,0,0,0,17,15.23C16.45,48.6,14.64,43.13,13.7,37Z"/></svg>