<?xml version="1.0" encoding="UTF-8"?><svg id="Layer_2" xmlns="http://www.w3.org/2000/svg" xmlns:xlink="http://www.w3.org/1999/xlink" viewBox="0 0 530.71 428.5"><defs><style>.cls-1{fill:#5f7181;}.cls-2{clip-path:url(#clippath);}.cls-3,.cls-4{fill:none;}.cls-4{stroke:#0e0e0e;stroke-miterlimit:10;}.cls-5{fill:#eed9c0;}</style><clipPath id="clippath"><rect class="cls-3" width="530.71" height="428.5"/></clipPath></defs><g id="Layer_1-2"><g class="cls-2"><g id="Group_24"><path id="Path_9" class="cls-5" d="M530.71,40.48C487.37,13.9,437.5-.11,386.66,0,236.9,0,115.5,118.68,115.5,265.08c-.02,58.32,19.56,114.95,55.59,160.8h359.62V40.48Z"/><path id="Path_10" class="cls-4" d="M360.33,427.19c0-.39,.03-.78,.03-1.17,0-96.93-80.38-175.5-179.52-175.5S1.31,329.09,1.31,426.02c0,.39,.03,.78,.03,1.17H360.33Z"/><path id="Path_11" class="cls-1" d="M188.19,242.84c11.68,33.5-6.63,69.92-40.9,81.34s-71.52-6.48-83.2-39.98,6.63-69.92,40.9-81.33c34.27-11.42,71.52,6.48,83.2,39.98"/></g></g></g></svg>